<?xml version="1.0" encoding="utf-8"?>
<!-- Generator: Adobe Illustrator 27.1.1, SVG Export Plug-In . SVG Version: 6.00 Build 0)  -->
<svg version="1.1" id="Capa_1" xmlns="http://www.w3.org/2000/svg" xmlns:xlink="http://www.w3.org/1999/xlink" x="0px" y="0px"
	 viewBox="0 0 1300 1300" style="enable-background:new 0 0 1300 1300;" xml:space="preserve">
<style type="text/css">
	.st0{fill:#1D70B7;}
	.st1{fill:url(#SVGID_1_);}
	.st2{fill:none;stroke:#1D1D1B;stroke-width:23.4735;stroke-miterlimit:10;}
	.st3{fill:url(#SVGID_00000047740544309444828170000008019862166871334303_);}
	.st4{fill:url(#SVGID_00000044879952578213784550000003403200934289762186_);}
	.st5{fill:url(#SVGID_00000111170214857585891880000000679707716734709138_);}
	.st6{fill:url(#SVGID_00000001661876924825972080000015951268488496383387_);}
	.st7{fill:#FFFFFF;}
	.st8{fill:url(#SVGID_00000058563039628196308270000005169971007946465441_);}
	.st9{fill:url(#SVGID_00000163042054760138422410000000482839643362958990_);}
</style>
<g>
	<g>
		<path class="st0" d="M579.3,636.5v566.2c0,0-599.6-103-520.6-867.4L579.3,636.5z"/>
		<path class="st0" d="M671.7,636.5v566.2c0,0,599.6-103,520.6-867.4L671.7,636.5z"/>
		<path class="st0" d="M625.5,40.5c0,0-288.5-14.5-529.1,216l529.1,305.9l529.1-305.9C914,26,625.5,40.5,625.5,40.5z"/>
	</g>
	<g>
		<radialGradient id="SVGID_1_" cx="375.0527" cy="1033.286" r="273.843" gradientUnits="userSpaceOnUse">
			<stop  offset="0" style="stop-color:#EDEBE9"/>
			<stop  offset="0" style="stop-color:#F9F8F8"/>
			<stop  offset="0" style="stop-color:#FFFFFF"/>
			<stop  offset="0.1436" style="stop-color:#F0F0F0"/>
			<stop  offset="0.418" style="stop-color:#C9CACA"/>
			<stop  offset="0.5225" style="stop-color:#B9BABA"/>
			<stop  offset="0.5995" style="stop-color:#AFB1B1"/>
			<stop  offset="0.7292" style="stop-color:#959898"/>
			<stop  offset="0.8945" style="stop-color:#6B7071"/>
			<stop  offset="1" style="stop-color:#4C5354"/>
		</radialGradient>
		<path class="st1" d="M615.8,1259.7c0,0-18.5-2.8-44.6-8.4c-16.1-3.5-165.3-29.6-313.9-158.4C169.8,1017.1,103.7,922.3,60.9,811
			l10.8-4.2c42.1,109.5,107.1,202.8,193.1,277.3c146.3,126.7,290.7,151.5,308.2,155.7c50.9,12.1,116.2,19.9,116.2,19.9L615.8,1259.7
			z"/>
	</g>
	<path class="st2" d="M628.3,611.4"/>
	<g>
		
			<radialGradient id="SVGID_00000178910081999304430660000008340193743858799754_" cx="1117.4235" cy="704.2043" r="284.1758" gradientUnits="userSpaceOnUse">
			<stop  offset="0" style="stop-color:#EDEBE9"/>
			<stop  offset="0" style="stop-color:#F9F8F8"/>
			<stop  offset="0" style="stop-color:#FFFFFF"/>
			<stop  offset="0.1436" style="stop-color:#F0F0F0"/>
			<stop  offset="0.418" style="stop-color:#C9CACA"/>
			<stop  offset="0.5225" style="stop-color:#B9BABA"/>
			<stop  offset="0.5995" style="stop-color:#AFB1B1"/>
			<stop  offset="0.7292" style="stop-color:#959898"/>
			<stop  offset="0.8945" style="stop-color:#6B7071"/>
			<stop  offset="1" style="stop-color:#4C5354"/>
		</radialGradient>
		<path style="fill:url(#SVGID_00000178910081999304430660000008340193743858799754_);" d="M1019.3,1069.9l-32.9,14.3
			c86-74.5,151-167.8,193.1-277.3c52-135.2,68.9-295.1,50.3-475.4l11.1-7.1c18.8,182.2,2.2,349.9-50.5,486.7
			C1147.6,922.3,1086.4,1005,1019.3,1069.9z"/>
	</g>
	
		<linearGradient id="SVGID_00000103229034700675812120000002577849380846337953_" gradientUnits="userSpaceOnUse" x1="51.5837" y1="768.9892" x2="579.327" y2="768.9892">
		<stop  offset="3.370800e-02" style="stop-color:#B1B1B1"/>
		<stop  offset="0.2384" style="stop-color:#C0C0C0"/>
		<stop  offset="0.382" style="stop-color:#CDCDCD"/>
		<stop  offset="0.5801" style="stop-color:#BEBEBE"/>
		<stop  offset="0.7191" style="stop-color:#B1B1B1"/>
		<stop  offset="1" style="stop-color:#D9D9D9"/>
		<stop  offset="1" style="stop-color:#B1B1B1"/>
	</linearGradient>
	<path style="fill:url(#SVGID_00000103229034700675812120000002577849380846337953_);" d="M579.3,636.5v566.2
		c0,0-599.6-103-520.6-867.4L579.3,636.5z"/>
	
		<linearGradient id="SVGID_00000171696720358636033150000014928961505988289181_" gradientUnits="userSpaceOnUse" x1="671.6999" y1="768.9892" x2="1199.4432" y2="768.9892">
		<stop  offset="3.370800e-02" style="stop-color:#B1B1B1"/>
		<stop  offset="0.2384" style="stop-color:#C0C0C0"/>
		<stop  offset="0.382" style="stop-color:#CDCDCD"/>
		<stop  offset="0.5801" style="stop-color:#BEBEBE"/>
		<stop  offset="0.7191" style="stop-color:#B1B1B1"/>
		<stop  offset="1" style="stop-color:#D9D9D9"/>
		<stop  offset="1" style="stop-color:#B1B1B1"/>
	</linearGradient>
	<path style="fill:url(#SVGID_00000171696720358636033150000014928961505988289181_);" d="M671.7,636.5v566.2
		c0,0,599.6-103,520.6-867.4L671.7,636.5z"/>
	
		<linearGradient id="SVGID_00000092444999255860169100000000625785243302549156_" gradientUnits="userSpaceOnUse" x1="96.3986" y1="301.2982" x2="1154.6283" y2="301.2982">
		<stop  offset="3.370800e-02" style="stop-color:#B1B1B1"/>
		<stop  offset="0.2384" style="stop-color:#C0C0C0"/>
		<stop  offset="0.382" style="stop-color:#CDCDCD"/>
		<stop  offset="0.5801" style="stop-color:#BEBEBE"/>
		<stop  offset="0.7191" style="stop-color:#B1B1B1"/>
		<stop  offset="1" style="stop-color:#D9D9D9"/>
		<stop  offset="1" style="stop-color:#B1B1B1"/>
	</linearGradient>
	<path style="fill:url(#SVGID_00000092444999255860169100000000625785243302549156_);" d="M625.5,40.5c0,0-288.5-14.5-529.1,216
		l529.1,305.9l529.1-305.9C914,26,625.5,40.5,625.5,40.5z"/>
	<g>
		<g>
			<path class="st7" d="M626.5,525.5L210,288.4h111.9l304.4,176.8l210.7-123L305.3,146.6l64.3-25c27.3-10.6,52.5-18.6,84.1-26.8
				c97.4-25,168.5-22.5,169.2-22.5l1.6,0.1l1.6-0.1c5.2-0.3,179.8-7.6,370.2,102.3l-118.1,0.1c-136-54.9-248.2-50.4-249.4-50.3
				l-4,0.2l-4.1-0.2c-0.5,0-64.9-2-154,20.9c-2.7,0.7-5.3,1.4-7.9,2.1l500.1,184L626.5,525.5z"/>
		</g>
	</g>
	<path class="st7" d="M85.7,387.6l-1.5,43.5c-8.8,260.8,67.3,462.8,226.2,600.4c39.9,34.6,40.1,31.9,54.2,42.1l101.9,0
		c-44.3-22.3-85.3-49.7-122-81.5c-55.6-48.2-100.2-105.3-133.7-170.9L420,641.3l75.4,43.6v208h52.2V654.9L85.7,387.6z M188.4,771.7
		c-34.4-85.7-52.1-184.1-52.7-294.9l236.5,136.8L188.4,771.7z"/>
	<g>
		<g>
			<path class="st7" d="M755.9,1137.7l-52.2,23.7V635l221.2,65.6l239.5-348.7l2.7,79.3c8.7,258.4-61,423.4-181.4,557.7l-75.2,0
				c126.8-111.8,195.3-270.4,204.1-472.3L946.5,761.4l-190.6-56.5V1137.7z"/>
		</g>
	</g>
	<g>
		
			<radialGradient id="SVGID_00000008128456642477830890000013886364333231194813_" cx="311.9977" cy="431.3189" r="167.9172" gradientUnits="userSpaceOnUse">
			<stop  offset="0" style="stop-color:#EDEBE9"/>
			<stop  offset="0" style="stop-color:#F9F8F8"/>
			<stop  offset="0" style="stop-color:#FFFFFF"/>
			<stop  offset="0.1436" style="stop-color:#F0F0F0"/>
			<stop  offset="0.418" style="stop-color:#C9CACA"/>
			<stop  offset="0.5225" style="stop-color:#B9BABA"/>
			<stop  offset="0.5995" style="stop-color:#AFB1B1"/>
			<stop  offset="0.7292" style="stop-color:#959898"/>
			<stop  offset="0.8945" style="stop-color:#6B7071"/>
			<stop  offset="1" style="stop-color:#4C5354"/>
		</radialGradient>
		<polygon style="fill:url(#SVGID_00000008128456642477830890000013886364333231194813_);" points="497.3,545.1 103.6,317.5 
			127.2,317.8 520.4,545.1 		"/>
	</g>
	<g>
		
			<radialGradient id="SVGID_00000070084853358642972100000005157982262539084199_" cx="895.2934" cy="456.9224" r="218.1253" gradientUnits="userSpaceOnUse">
			<stop  offset="0" style="stop-color:#EDEBE9"/>
			<stop  offset="0" style="stop-color:#F9F8F8"/>
			<stop  offset="0" style="stop-color:#FFFFFF"/>
			<stop  offset="0.1436" style="stop-color:#F0F0F0"/>
			<stop  offset="0.418" style="stop-color:#C9CACA"/>
			<stop  offset="0.5225" style="stop-color:#B9BABA"/>
			<stop  offset="0.5995" style="stop-color:#AFB1B1"/>
			<stop  offset="0.7292" style="stop-color:#959898"/>
			<stop  offset="0.8945" style="stop-color:#6B7071"/>
			<stop  offset="1" style="stop-color:#4C5354"/>
		</radialGradient>
		<polygon style="fill:url(#SVGID_00000070084853358642972100000005157982262539084199_);" points="648.7,606.3 625.4,606.4 
			1142,307.5 1165.2,307.5 		"/>
	</g>
</g>
</svg>
